# xmcd
#
# Track frame offsets: 
#        150
#        14342
#        30742
#        42390
#        58085
#        72500
#        89605
#        108847
#        126465
#        143047
#        156925
#        172677
#        195040
#        207012
#        229420
#        253862
#        268567
#        284717
#        301177
#
# Disc length: 4246 seconds
#
# Revision: 1
# Processed by: cddbd v1.5.2PL0 Copyright (c) Steve Scherf et al.
# Submitted via: ExactAudioCopy v0.95b4
#
DISCID=12109413
DTITLE=Sammy's Saloon - Sammy's Saloon
DYEAR=1996
DGENRE=Country Rock
TTITLE0=Sie Kocht Den Besten Kaffee Von Ganz Texas
TTITLE1=Proud Mary
TTITLE2=On The Road Again
TTITLE3=Ring Of Fire
TTITLE4=Corduroy Road
TTITLE5=Lay Down Sally
TTITLE6=(Ghost) Riders In The Sky
TTITLE7=Wonderful Tonight
TTITLE8=Down On The Corner
TTITLE9=Sammy's Honky Tonk Saloon
TTITLE10=Take It Easy
TTITLE11=Rock'n Roll I Gave You All The Best Years Of My Life
TTITLE12=Bad Moon Rising
TTITLE13=Sweet Home Alabama
TTITLE14=Bluest Eyes
TTITLE15=A Country Honk
TTITLE16=Up Around The Bend
TTITLE17=Country Roads
TTITLE18=Wandrin' Star
EXTD=
EXTT0=
EXTT1=
EXTT2=
EXTT3=
EXTT4=
EXTT5=
EXTT6=
EXTT7=
EXTT8=
EXTT9=
EXTT10=
EXTT11=
EXTT12=
EXTT13=
EXTT14=
EXTT15=
EXTT16=
EXTT17=
EXTT18=
PLAYORDER=
